  0
SECTION
  2
HEADER
  9
$ACADVER
  1
AC1009
  9
$INSBASE
 10
0.0
 20
0.0
 30
0.0
  9
$EXTMIN
 10
-0.0000000000000007
 20
0.0
 30
0.0
  9
$EXTMAX
 10
269.800000000101079
 20
300.0
 30
0.0
  9
$LIMMIN
 10
0.0
 20
0.0
  9
$LIMMAX
 10
12.0
 20
9.0
  9
$ORTHOMODE
 70
     1
  9
$REGENMODE
 70
     1
  9
$FILLMODE
 70
     1
  9
$QTEXTMODE
 70
     0
  9
$MIRRTEXT
 70
     0
  9
$DRAGMODE
 70
     2
  9
$LTSCALE
 40
1.0
  9
$OSMODE
 70
  2047
  9
$ATTMODE
 70
     1
  9
$TEXTSIZE
 40
0.2
  9
$TRACEWID
 40
0.05
  9
$TEXTSTYLE
  7
STANDARD
  9
$CLAYER
  8
0
  9
$CELTYPE
  6
BYLAYER
  9
$CECOLOR
 62
   256
  9
$DIMSCALE
 40
1.0
  9
$DIMASZ
 40
0.0625
  9
$DIMEXO
 40
0.0625
  9
$DIMDLI
 40
0.0625
  9
$DIMRND
 40
0.0
  9
$DIMDLE
 40
0.0625
  9
$DIMEXE
 40
0.0625
  9
$DIMTP
 40
0.0
  9
$DIMTM
 40
0.0
  9
$DIMTXT
 40
0.0833333333333333
  9
$DIMCEN
 40
0.0625
  9
$DIMTSZ
 40
0.0
  9
$DIMTOL
 70
     0
  9
$DIMLIM
 70
     0
  9
$DIMTIH
 70
     0
  9
$DIMTOH
 70
     0
  9
$DIMSE1
 70
     0
  9
$DIMSE2
 70
     0
  9
$DIMTAD
 70
     1
  9
$DIMZIN
 70
     0
  9
$DIMBLK
  1

  9
$DIMASO
 70
     1
  9
$DIMSHO
 70
     1
  9
$DIMPOST
  1
mm
  9
$DIMAPOST
  1

  9
$DIMALT
 70
     0
  9
$DIMALTD
 70
     2
  9
$DIMALTF
 40
25.3999999999999986
  9
$DIMLFAC
 40
1.0
  9
$DIMTOFL
 70
     0
  9
$DIMTVP
 40
0.0
  9
$DIMTIX
 70
     0
  9
$DIMSOXD
 70
     0
  9
$DIMSAH
 70
     0
  9
$DIMBLK1
  1

  9
$DIMBLK2
  1

  9
$DIMSTYLE
  2
ENG
  9
$DIMCLRD
 70
   256
  9
$DIMCLRE
 70
   256
  9
$DIMCLRT
 70
   256
  9
$DIMTFAC
 40
0.75
  9
$DIMGAP
 40
0.0625
  9
$LUNITS
 70
     2
  9
$LUPREC
 70
     4
  9
$SKETCHINC
 40
0.1
  9
$FILLETRAD
 40
2.0
  9
$AUNITS
 70
     0
  9
$AUPREC
 70
     0
  9
$MENU
  1
.
  9
$ELEVATION
 40
0.0
  9
$PELEVATION
 40
0.0
  9
$THICKNESS
 40
0.0
  9
$LIMCHECK
 70
     0
  9
$BLIPMODE
 70
     0
  9
$CHAMFERA
 40
0.0
  9
$CHAMFERB
 40
0.0
  9
$SKPOLY
 70
     0
  9
$TDCREATE
 40
2459505.0421064808033407
  9
$TDUPDATE
 40
2459505.547546295914799
  9
$TDINDWG
 40
0.0226736111
  9
$TDUSRTIMER
 40
0.0226736111
  9
$USRTIMER
 70
     1
  9
$ANGBASE
 50
0.0
  9
$ANGDIR
 70
     0
  9
$PDMODE
 70
     0
  9
$PDSIZE
 40
0.0
  9
$PLINEWID
 40
0.0
  9
$COORDS
 70
     1
  9
$SPLFRAME
 70
     0
  9
$SPLINETYPE
 70
     6
  9
$SPLINESEGS
 70
     8
  9
$ATTDIA
 70
     1
  9
$ATTREQ
 70
     1
  9
$HANDLING
 70
     1
  9
$HANDSEED
  5
450
  9
$SURFTAB1
 70
     6
  9
$SURFTAB2
 70
     6
  9
$SURFTYPE
 70
     6
  9
$SURFU
 70
     6
  9
$SURFV
 70
     6
  9
$UCSNAME
  2

  9
$UCSORG
 10
0.0
 20
0.0
 30
0.0
  9
$UCSXDIR
 10
1.0
 20
0.0
 30
0.0
  9
$UCSYDIR
 10
0.0
 20
1.0
 30
0.0
  9
$PUCSNAME
  2

  9
$PUCSORG
 10
0.0
 20
0.0
 30
0.0
  9
$PUCSXDIR
 10
1.0
 20
0.0
 30
0.0
  9
$PUCSYDIR
 10
0.0
 20
1.0
 30
0.0
  9
$USERI1
 70
     0
  9
$USERI2
 70
     0
  9
$USERI3
 70
     0
  9
$USERI4
 70
     0
  9
$USERI5
 70
     0
  9
$USERR1
 40
0.0
  9
$USERR2
 40
0.0
  9
$USERR3
 40
0.0
  9
$USERR4
 40
0.0
  9
$USERR5
 40
0.0
  9
$WORLDVIEW
 70
     1
  9
$SHADEDGE
 70
     3
  9
$SHADEDIF
 70
    70
  9
$TILEMODE
 70
     1
  9
$MAXACTVP
 70
    64
  9
$PLIMCHECK
 70
     0
  9
$PEXTMIN
 10
1.0000000000000000E+20
 20
1.0000000000000000E+20
 30
1.0000000000000000E+20
  9
$PEXTMAX
 10
-1.0000000000000000E+20
 20
-1.0000000000000000E+20
 30
-1.0000000000000000E+20
  9
$PLIMMIN
 10
0.0
 20
0.0
  9
$PLIMMAX
 10
12.0
 20
9.0
  9
$UNITMODE
 70
     0
  9
$VISRETAIN
 70
     1
  9
$PLINEGEN
 70
     0
  9
$PSLTSCALE
 70
     1
  0
ENDSEC
  0
SECTION
  2
TABLES
  0
TABLE
  2
VPORT
 70
     1
  0
VPORT
  2
*ACTIVE
 70
     0
 10
0.0
 20
0.0
 11
1.0
 21
1.0
 12
96.3696064906974357
 22
165.2537916830430049
 13
0.0
 23
0.0
 14
0.5
 24
0.5
 15
0.5
 25
0.5
 16
0.0
 26
0.0
 36
1.0
 17
0.0
 27
0.0
 37
0.0
 40
453.0824851359117247
 41
1.8495495495495491
 42
50.0
 43
0.0
 44
0.0
 50
0.0
 51
0.0
 71
     0
 72
  1000
 73
     1
 74
     3
 75
     0
 76
     0
 77
     0
 78
     0
  0
ENDTAB
  0
TABLE
  2
LTYPE
 70
     2
  0
LTYPE
  2
CONTINUOUS
 70
     0
  3
Solid line
 72
    65
 73
     0
 40
0.0
  0
ENDTAB
  0
TABLE
  2
LAYER
 70
     1
  0
LAYER
  2
0
 70
     0
 62
     7
  6
CONTINUOUS
  0
ENDTAB
  0
TABLE
  2
STYLE
 70
     2
  0
STYLE
  2
STANDARD
 70
     0
 40
0.0833333333333333
 41
1.0
 50
0.0
 71
     0
 42
0.2
  3
archquik.shx
  4

  0
STYLE
  2
ANNOTATIVE
 70
     0
 40
0.0
 41
1.0
 50
0.0
 71
     0
 42
0.2
  3
txt
  4

  0
ENDTAB
  0
TABLE
  2
VIEW
 70
     0
  0
ENDTAB
  0
TABLE
  2
UCS
 70
     0
  0
ENDTAB
  0
TABLE
  2
APPID
 70
    13
  0
APPID
  2
ACAD
 70
     0
  0
APPID
  2
ACADANNOTATIVE
 70
     0
  0
APPID
  2
ACAD_NAV_VCDISPLAY
 70
     0
  0
APPID
  2
ACCMTRANSPARENCY
 70
     0
  0
APPID
  2
ACAECLAYERSTANDARD
 70
     0
  0
APPID
  2
ACADANNOPO
 70
     0
  0
APPID
  2
ACAD_DSTYLE_DIMJAG
 70
     0
  0
APPID
  2
ACAD_DSTYLE_DIMTALN
 70
     0
  0
APPID
  2
ACAD_PSEXT
 70
     0
  0
APPID
  2
ACAD_DSTYLE_DIMBREAK
 70
     0
  0
APPID
  2
ADESKUNDERLAYLAYEROVERRIDEDATA
 70
     0
  0
APPID
  2
ACAD_EXEMPT_FROM_CAD_STANDARDS
 70
     0
  0
APPID
  2
ACAD_MLEADERVER
 70
     0
  0
ENDTAB
  0
TABLE
  2
DIMSTYLE
 70
     4
  0
DIMSTYLE
  2
STANDARD
 70
     0
  3

  4

  5

  6

  7

 40
1.0
 41
0.18
 42
0.0625
 43
0.38
 44
0.18
 45
0.0
 46
0.0
 47
0.0
 48
0.0
140
0.18
141
0.09
142
0.0
143
25.3999999999999986
144
1.0
145
0.0
146
1.0
147
0.09
 71
     0
 72
     0
 73
     1
 74
     1
 75
     0
 76
     0
 77
     0
 78
     0
170
     0
171
     2
172
     0
173
     0
174
     0
175
     0
176
     0
177
     0
178
     0
  0
DIMSTYLE
  2
ANNOTATIVE
 70
     0
  3

  4

  5

  6

  7

 40
1.0
 41
0.18
 42
0.0625
 43
0.38
 44
0.18
 45
0.0
 46
0.0
 47
0.0
 48
0.0
140
0.18
141
0.09
142
0.0
143
25.3999999999999986
144
1.0
145
0.0
146
1.0
147
0.09
 71
     0
 72
     0
 73
     1
 74
     1
 75
     0
 76
     0
 77
     0
 78
     0
170
     0
171
     2
172
     0
173
     0
174
     0
175
     0
176
     0
177
     0
178
     0
  0
DIMSTYLE
  2
ENG
 70
     0
  3

  4

  5

  6

  7

 40
1.0
 41
0.0625
 42
0.0625
 43
0.0625
 44
0.0625
 45
0.0
 46
0.0625
 47
0.0
 48
0.0
140
0.0833333333333333
141
0.0625
142
0.0
143
25.3999999999999986
144
1.0
145
0.0
146
0.75
147
0.0625
 71
     0
 72
     0
 73
     0
 74
     0
 75
     0
 76
     0
 77
     1
 78
     0
170
     0
171
     2
172
     0
173
     0
174
     0
175
     0
176
   256
177
   256
178
   256
  0
ENDTAB
  0
ENDSEC
  0
SECTION
  2
BLOCKS
  0
BLOCK
  8
0
  2
$MODEL_SPACE
 70
     0
 10
0.0
 20
0.0
 30
0.0
  3
$MODEL_SPACE
  1

  0
ENDBLK
  5
345
  8
0
  0
BLOCK
 67
     1
  8
0
  2
$PAPER_SPACE
 70
     0
 10
0.0
 20
0.0
 30
0.0
  3
$PAPER_SPACE
  1

  0
ENDBLK
  5
341
 67
     1
  8
0
  0
ENDSEC
  0
SECTION
  2
ENTITIES
  0
CIRCLE
  5
10E
  8
0
 10
14.8709999999999898
 20
74.8552999999999855
 30
0.0
 40
1.75
  0
CIRCLE
  5
10F
  8
0
 10
104.8709999999999951
 20
74.8552999999999855
 30
0.0
 40
1.75
  0
CIRCLE
  5
110
  8
0
 10
139.400100000000009
 20
131.3573000000000093
 30
0.0
 40
1.75
  0
CIRCLE
  5
112
  8
0
 10
139.400100000000009
 20
73.3573000000000093
 30
0.0
 40
1.75
  0
CIRCLE
  5
115
  8
0
 10
253.4000000000916941
 20
55.8499999999999872
 30
0.0
 40
1.75
  0
POLYLINE
  5
205
  8
0
 66
     1
 10
0.0
 20
0.0
 30
0.0
  0
VERTEX
  5
3E3
  8
0
 10
46.0537999999999883
 20
0.0
 30
0.0
 42
-0.4142135623730951
  0
VERTEX
  5
3E4
  8
0
 10
44.0538000000000025
 20
2.0
 30
0.0
  0
VERTEX
  5
3E5
  8
0
 10
44.0538000000000025
 20
37.4500000000000028
 30
0.0
 42
0.4142135623730951
  0
VERTEX
  5
3E6
  8
0
 10
39.0538000000000025
 20
42.4500000000000028
 30
0.0
  0
VERTEX
  5
3E7
  8
0
 10
1.999999999999998
 20
42.4500000000000028
 30
0.0
 42
-0.4142135623730951
  0
VERTEX
  5
3E8
  8
0
 10
0.0
 20
44.4500000000000028
 30
0.0
  0
VERTEX
  5
3E9
  8
0
 10
0.0
 20
297.8000000000000114
 30
0.0
 42
-0.4142135623730951
  0
VERTEX
  5
3EA
  8
0
 10
2.0
 20
299.8000000000000114
 30
0.0
  0
VERTEX
  5
3EB
  8
0
 10
50.9000000000057611
 20
299.8000000000000114
 30
0.0
 42
-0.4142135623487543
  0
VERTEX
  5
3EC
  8
0
 10
52.9000000000057611
 20
297.8000000001662215
 30
0.0
  0
VERTEX
  5
3ED
  8
0
 10
52.9000000006706017
 20
289.8000000716141926
 30
0.0
 42
0.4142135623487543
  0
VERTEX
  5
3EE
  8
0
 10
54.9000000006706017
 20
287.8000000717805733
 30
0.0
  0
VERTEX
  5
3EF
  8
0
 10
62.8999999999999204
 20
287.8000000717805733
 30
0.0
 42
0.4142135623730951
  0
VERTEX
  5
3F0
  8
0
 10
64.8999999999999346
 20
289.8000000717805733
 30
0.0
  0
VERTEX
  5
3F1
  8
0
 10
64.8999999999999346
 20
297.8000000000000114
 30
0.0
 42
-0.4142135623730951
  0
VERTEX
  5
3F2
  8
0
 10
66.8999999999999346
 20
299.8000000000000114
 30
0.0
  0
VERTEX
  5
3F3
  8
0
 10
96.9419999999999789
 20
299.8000000000000114
 30
0.0
 42
-0.4142135623730951
  0
VERTEX
  5
3F4
  8
0
 10
98.941999999999922
 20
297.8000000000000114
 30
0.0
  0
VERTEX
  5
3F5
  8
0
 10
98.941999999999922
 20
293.1358000000000175
 30
0.0
 42
0.1989123673796595
  0
VERTEX
  5
3F6
  8
0
 10
100.4064660940671985
 20
289.6002660940670808
 30
0.0
  0
VERTEX
  5
3F7
  8
0
 10
107.831612892453407
 20
282.10553782966889
 30
0.0
 42
-0.2038149600884313
  0
VERTEX
  5
3F8
  8
0
 10
109.2410074953677963
 20
278.5957690403936908
 30
0.0
  0
VERTEX
  5
3F9
  8
0
 10
109.2420000000000044
 20
254.892999999999887
 30
0.0
 42
0.4142135623730951
  0
VERTEX
  5
3FA
  8
0
 10
114.2420000000000044
 20
249.892999999999887
 30
0.0
  0
VERTEX
  5
3FB
  8
0
 10
155.5579999999999075
 20
249.892999999999887
 30
0.0
 42
0.4142135623730951
  0
VERTEX
  5
3FC
  8
0
 10
160.5579999999999075
 20
254.892999999999887
 30
0.0
  0
VERTEX
  5
3FD
  8
0
 10
160.5589925046319024
 20
278.5957690403936908
 30
0.0
 42
-0.2038149600884313
  0
VERTEX
  5
3FE
  8
0
 10
161.9683871075465049
 20
282.10553782966889
 30
0.0
  0
VERTEX
  5
3FF
  8
0
 10
169.3935339059327134
 20
289.6002660940670808
 30
0.0
 42
0.1989123673796595
  0
VERTEX
  5
400
  8
0
 10
170.8579999999998051
 20
293.1358000000000175
 30
0.0
  0
VERTEX
  5
401
  8
0
 10
170.8579999999998051
 20
297.8000000000000114
 30
0.0
 42
-0.4142135623730951
  0
VERTEX
  5
402
  8
0
 10
172.8579999999998051
 20
299.8000000000000114
 30
0.0
  0
VERTEX
  5
403
  8
0
 10
267.8000000000001251
 20
299.8000000000000114
 30
0.0
 42
-0.4142135623729871
  0
VERTEX
  5
404
  8
0
 10
269.8000000000001251
 20
297.8000000000008072
 30
0.0
  0
VERTEX
  5
405
  8
0
 10
269.800000000101079
 20
44.4500000000007276
 30
0.0
 42
-0.4142135623732014
  0
VERTEX
  5
406
  8
0
 10
267.800000000101079
 20
42.4500000000000028
 30
0.0
  0
VERTEX
  5
407
  8
0
 10
230.7461999999999875
 20
42.4500000000000028
 30
0.0
 42
0.4142135623730951
  0
VERTEX
  5
408
  8
0
 10
225.7461999999999875
 20
37.4500000000000028
 30
0.0
  0
VERTEX
  5
409
  8
0
 10
225.7461999999999875
 20
2.0
 30
0.0
 42
-0.4142135623730951
  0
VERTEX
  5
40A
  8
0
 10
223.7461999999999875
 20
0.0
 30
0.0
  0
VERTEX
  5
40B
  8
0
 10
46.0537999999999883
 20
0.0
 30
0.0
  0
SEQEND
  5
40C
  8
0
  0
CIRCLE
  5
22C
  8
0
 10
14.8709999999999898
 20
224.8552999999999997
 30
0.0
 40
1.75
  0
CIRCLE
  5
22D
  8
0
 10
104.8709999999999951
 20
224.8552999999999997
 30
0.0
 40
1.75
  0
CIRCLE
  5
230
  8
0
 10
188.400100000000009
 20
131.3573000000000093
 30
0.0
 40
1.75
  0
CIRCLE
  5
231
  8
0
 10
188.400100000000009
 20
73.3573000000000093
 30
0.0
 40
1.75
  0
CIRCLE
  5
234
  8
0
 10
211.4000000000916089
 20
55.8499999999999872
 30
0.0
 40
1.75
  0
CIRCLE
  5
235
  8
0
 10
253.4000000000916941
 20
243.8499999999999943
 30
0.0
 40
1.75
  0
CIRCLE
  5
236
  8
0
 10
211.4000000000916089
 20
243.8499999999999943
 30
0.0
 40
1.75
  0
ENDSEC
  0
EOF
