  0
SECTION
  2
HEADER
  9
$ACADVER
  1
AC1009
  9
$INSBASE
 10
0.0
 20
0.0
 30
0.0
  9
$EXTMIN
 10
-0.0222747726181751
 20
-0.0298673838757395
 30
-0.0015258207003583
  9
$EXTMAX
 10
292.0178148476441038
 20
366.9677260492607047
 30
0.0000000349246037
  9
$LIMMIN
 10
0.0
 20
0.0
  9
$LIMMAX
 10
12.0
 20
9.0
  9
$ORTHOMODE
 70
     1
  9
$REGENMODE
 70
     1
  9
$FILLMODE
 70
     1
  9
$QTEXTMODE
 70
     0
  9
$MIRRTEXT
 70
     0
  9
$DRAGMODE
 70
     2
  9
$LTSCALE
 40
1.0
  9
$OSMODE
 70
  2047
  9
$ATTMODE
 70
     1
  9
$TEXTSIZE
 40
0.2
  9
$TRACEWID
 40
0.05
  9
$TEXTSTYLE
  7
STANDARD
  9
$CLAYER
  8
0
  9
$CELTYPE
  6
CONTINUOUS
  9
$CECOLOR
 62
   256
  9
$DIMSCALE
 40
1.0
  9
$DIMASZ
 40
0.18
  9
$DIMEXO
 40
0.0625
  9
$DIMDLI
 40
0.38
  9
$DIMRND
 40
0.0
  9
$DIMDLE
 40
0.0
  9
$DIMEXE
 40
0.18
  9
$DIMTP
 40
0.0
  9
$DIMTM
 40
0.0
  9
$DIMTXT
 40
0.18
  9
$DIMCEN
 40
0.09
  9
$DIMTSZ
 40
0.0
  9
$DIMTOL
 70
     0
  9
$DIMLIM
 70
     0
  9
$DIMTIH
 70
     1
  9
$DIMTOH
 70
     1
  9
$DIMSE1
 70
     0
  9
$DIMSE2
 70
     0
  9
$DIMTAD
 70
     0
  9
$DIMZIN
 70
     0
  9
$DIMBLK
  1

  9
$DIMASO
 70
     1
  9
$DIMSHO
 70
     1
  9
$DIMPOST
  1

  9
$DIMAPOST
  1

  9
$DIMALT
 70
     0
  9
$DIMALTD
 70
     2
  9
$DIMALTF
 40
25.3999999999999986
  9
$DIMLFAC
 40
1.0
  9
$DIMTOFL
 70
     0
  9
$DIMTVP
 40
0.0
  9
$DIMTIX
 70
     0
  9
$DIMSOXD
 70
     0
  9
$DIMSAH
 70
     0
  9
$DIMBLK1
  1

  9
$DIMBLK2
  1

  9
$DIMSTYLE
  2
STANDARD
  9
$DIMCLRD
 70
     0
  9
$DIMCLRE
 70
     0
  9
$DIMCLRT
 70
     0
  9
$DIMTFAC
 40
1.0
  9
$DIMGAP
 40
0.09
  9
$LUNITS
 70
     2
  9
$LUPREC
 70
     4
  9
$SKETCHINC
 40
0.1
  9
$FILLETRAD
 40
2.5
  9
$AUNITS
 70
     0
  9
$AUPREC
 70
     0
  9
$MENU
  1
.
  9
$ELEVATION
 40
0.0
  9
$PELEVATION
 40
0.0
  9
$THICKNESS
 40
0.0
  9
$LIMCHECK
 70
     0
  9
$BLIPMODE
 70
     0
  9
$CHAMFERA
 40
0.0
  9
$CHAMFERB
 40
0.0
  9
$SKPOLY
 70
     0
  9
$TDCREATE
 40
2459508.4403472221456468
  9
$TDUPDATE
 40
2459508.4437268520705402
  9
$TDINDWG
 40
0.0033912037
  9
$TDUSRTIMER
 40
0.0033912037
  9
$USRTIMER
 70
     1
  9
$ANGBASE
 50
0.0
  9
$ANGDIR
 70
     0
  9
$PDMODE
 70
     0
  9
$PDSIZE
 40
0.0
  9
$PLINEWID
 40
0.0
  9
$COORDS
 70
     1
  9
$SPLFRAME
 70
     0
  9
$SPLINETYPE
 70
     6
  9
$SPLINESEGS
 70
     8
  9
$ATTDIA
 70
     1
  9
$ATTREQ
 70
     1
  9
$HANDLING
 70
     1
  9
$HANDSEED
  5
10112
  9
$SURFTAB1
 70
     6
  9
$SURFTAB2
 70
     6
  9
$SURFTYPE
 70
     6
  9
$SURFU
 70
     6
  9
$SURFV
 70
     6
  9
$UCSNAME
  2

  9
$UCSORG
 10
0.0
 20
0.0
 30
0.0
  9
$UCSXDIR
 10
1.0
 20
0.0
 30
0.0
  9
$UCSYDIR
 10
0.0
 20
1.0
 30
0.0
  9
$PUCSNAME
  2

  9
$PUCSORG
 10
0.0
 20
0.0
 30
0.0
  9
$PUCSXDIR
 10
1.0
 20
0.0
 30
0.0
  9
$PUCSYDIR
 10
0.0
 20
1.0
 30
0.0
  9
$USERI1
 70
     0
  9
$USERI2
 70
     0
  9
$USERI3
 70
     0
  9
$USERI4
 70
     0
  9
$USERI5
 70
     0
  9
$USERR1
 40
0.0
  9
$USERR2
 40
0.0
  9
$USERR3
 40
0.0
  9
$USERR4
 40
0.0
  9
$USERR5
 40
0.0
  9
$WORLDVIEW
 70
     1
  9
$SHADEDGE
 70
     3
  9
$SHADEDIF
 70
    70
  9
$TILEMODE
 70
     1
  9
$MAXACTVP
 70
    64
  9
$PLIMCHECK
 70
     0
  9
$PEXTMIN
 10
1.0000000000000000E+20
 20
1.0000000000000000E+20
 30
1.0000000000000000E+20
  9
$PEXTMAX
 10
-1.0000000000000000E+20
 20
-1.0000000000000000E+20
 30
-1.0000000000000000E+20
  9
$PLIMMIN
 10
0.0
 20
0.0
  9
$PLIMMAX
 10
12.0
 20
9.0
  9
$UNITMODE
 70
     0
  9
$VISRETAIN
 70
     1
  9
$PLINEGEN
 70
     0
  9
$PSLTSCALE
 70
     1
  0
ENDSEC
  0
SECTION
  2
TABLES
  0
TABLE
  2
VPORT
 70
     1
  0
VPORT
  2
*ACTIVE
 70
     0
 10
0.0
 20
0.0
 11
1.0
 21
1.0
 12
145.9977700375129928
 22
183.4689293326923973
 13
0.0
 23
0.0
 14
1.0
 24
1.0
 15
0.0
 25
0.0
 16
0.0
 26
0.0
 36
1.0
 17
0.0
 27
0.0
 37
0.0
 40
368.9308555583330076
 41
1.8040421792618631
 42
50.0
 43
0.0
 44
0.0
 50
0.0
 51
0.0
 71
     0
 72
  1000
 73
     1
 74
     3
 75
     0
 76
     0
 77
     0
 78
     0
  0
ENDTAB
  0
TABLE
  2
LTYPE
 70
     2
  0
LTYPE
  2
CONTINUOUS
 70
     0
  3
Solid line
 72
    65
 73
     0
 40
0.0
  0
ENDTAB
  0
TABLE
  2
LAYER
 70
     1
  0
LAYER
  2
0
 70
     0
 62
     7
  6
CONTINUOUS
  0
ENDTAB
  0
TABLE
  2
STYLE
 70
     1
  0
STYLE
  2
STANDARD
 70
     0
 40
0.0
 41
1.0
 50
0.0
 71
     0
 42
0.2
  3
txt
  4

  0
ENDTAB
  0
TABLE
  2
VIEW
 70
     2
  0
ENDTAB
  0
TABLE
  2
UCS
 70
     0
  0
ENDTAB
  0
TABLE
  2
APPID
 70
     4
  0
APPID
  2
ACAD
 70
     0
  0
APPID
  2
ACAD_NAV_VCDISPLAY
 70
     0
  0
APPID
  2
ACAD_EXEMPT_FROM_CAD_STANDARDS
 70
     0
  0
APPID
  2
ACAD_MLEADERVER
 70
     0
  0
ENDTAB
  0
TABLE
  2
DIMSTYLE
 70
     2
  0
DIMSTYLE
  2
STANDARD
 70
     0
  3

  4

  5

  6

  7

 40
1.0
 41
0.18
 42
0.0625
 43
0.38
 44
0.18
 45
0.0
 46
0.0
 47
0.0
 48
0.0
140
0.18
141
0.09
142
0.0
143
25.3999999999999986
144
1.0
145
0.0
146
1.0
147
0.09
 71
     0
 72
     0
 73
     1
 74
     1
 75
     0
 76
     0
 77
     0
 78
     0
170
     0
171
     2
172
     0
173
     0
174
     0
175
     0
176
     0
177
     0
178
     0
  0
ENDTAB
  0
ENDSEC
  0
SECTION
  2
BLOCKS
  0
BLOCK
  8
0
  2
$MODEL_SPACE
 70
     0
 10
0.0
 20
0.0
 30
0.0
  3
$MODEL_SPACE
  1

  0
ENDBLK
  5
21
  8
0
  0
BLOCK
 67
     1
  8
0
  2
$PAPER_SPACE
 70
     0
 10
0.0
 20
0.0
 30
0.0
  3
$PAPER_SPACE
  1

  0
ENDBLK
  5
1D
 67
     1
  8
0
  0
ENDSEC
  0
SECTION
  2
ENTITIES
  0
CIRCLE
  5
218
  8
0
 10
288.4999314224548925
 20
40.9425595231912212
 30
0.0
 40
1.7000000000000171
  0
CIRCLE
  5
219
  8
0
 10
250.9999864151330939
 20
3.5000016674002969
 30
0.0
 40
1.7000000000000171
  0
CIRCLE
  5
220
  8
0
 10
51.0000000570426621
 20
3.5000000000000142
 30
0.0
 40
1.7000000000000171
  0
CIRCLE
  5
221
  8
0
 10
3.5000054568277781
 20
51.0
 30
0.0
 40
1.7000000000000171
  0
CIRCLE
  5
222
  8
0
 10
250.9999864151330939
 20
363.4425451827094093
 30
0.0
 40
1.7000000000000171
  0
CIRCLE
  5
223
  8
0
 10
288.4999864151330939
 20
325.9425505824946185
 30
0.0
 40
1.7000000000000171
  0
CIRCLE
  5
224
  8
0
 10
288.4999867387405175
 20
183.4425505824945049
 30
0.0
 40
1.7000000000000171
  0
CIRCLE
  5
225
  8
0
 10
3.500000057042683
 20
173.4425505824945049
 30
0.0
 40
1.7000000000000171
  0
CIRCLE
  5
226
  8
0
 10
51.0000000570426621
 20
363.4425451827094093
 30
0.0
 40
1.7000000000000171
  0
CIRCLE
  5
227
  8
0
 10
3.4999972147034271
 20
315.9425505824945049
 30
0.0
 40
1.7000000000000171
  0
POLYLINE
  5
10079
  8
0
 66
     1
 10
0.0
 20
0.0
 30
0.0
 70
     1
  0
VERTEX
  5
100DE
  8
0
 10
57.0000002177447413
 20
6.0000083528481118
 30
0.0
  0
VERTEX
  5
100DF
  8
0
 10
244.9999865758400972
 20
5.9999962676151446
 30
0.0
 42
-0.4142132799516112
  0
VERTEX
  5
100E0
  8
0
 10
247.4999864151311044
 20
3.4999985175256252
 30
0.0
 42
0.999999550018005
  0
VERTEX
  5
100E1
  8
0
 10
254.4999864151365045
 20
3.5000016674002969
 30
0.0
 42
-0.4142135623730951
  0
VERTEX
  5
100E2
  8
0
 10
256.9999864151365045
 20
6.0000016674002969
 30
0.0
  0
VERTEX
  5
100E3
  8
0
 10
284.9999788637740039
 20
6.0000016674002969
 30
0.0
 42
0.4142135460940871
  0
VERTEX
  5
100E4
  8
0
 10
285.9999788637740039
 20
7.0000016118202799
 30
0.0
  0
VERTEX
  5
100E5
  8
0
 10
285.999980416821586
 20
34.9425596619820382
 30
0.0
 42
-0.4142111544098389
  0
VERTEX
  5
100E6
  8
0
 10
288.4999600025021209
 20
37.4425595229486632
 30
0.0
 42
0.9999917787259541
  0
VERTEX
  5
100E7
  8
0
 10
288.4999603915625244
 20
44.4425595234305888
 30
0.0
 42
-0.4142111559691075
  0
VERTEX
  5
100E8
  8
0
 10
285.9999810837821883
 20
46.9425596756043788
 30
0.0
  0
VERTEX
  5
100E9
  8
0
 10
285.9999890317233167
 20
177.4425507347935138
 30
0.0
 42
-0.4142134326016164
  0
VERTEX
  5
100EA
  8
0
 10
288.499988076313798
 20
179.9425505825338973
 30
0.0
 42
0.9999995622421911
  0
VERTEX
  5
100EB
  8
0
 10
288.4999884654725975
 20
186.9425505824549987
 30
0.0
 42
-0.4142134357115589
  0
VERTEX
  5
100EC
  8
0
 10
285.9999896988525734
 20
189.4425507347108066
 30
0.0
  0
VERTEX
  5
100ED
  8
0
 10
285.9999976466223188
 20
319.9425507347465896
 30
0.0
 42
-0.4142129962641169
  0
VERTEX
  5
100EE
  8
0
 10
288.4999929668351797
 20
322.4425505824859783
 30
0.0
 42
0.9999990640430011
  0
VERTEX
  5
100EF
  8
0
 10
288.4999864151330939
 20
329.4425505825091136
 30
0.0
 42
-0.4142135623730983
  0
VERTEX
  5
100F0
  8
0
 10
285.9999864151330939
 20
331.9425505825092273
 30
0.0
  0
VERTEX
  5
100F1
  8
0
 10
285.9999864151330939
 20
359.9425505824946185
 30
0.0
 42
0.4142135623730951
  0
VERTEX
  5
100F2
  8
0
 10
284.9999864151330939
 20
360.9425505824946185
 30
0.0
  0
VERTEX
  5
100F3
  8
0
 10
256.9999864151342877
 20
360.9425505824946185
 30
0.0
 42
-0.4142132987797091
  0
VERTEX
  5
100F4
  8
0
 10
254.4999864151351119
 20
363.4425483325841242
 30
0.0
 42
0.9999991883101543
  0
VERTEX
  5
100F5
  8
0
 10
247.4999864151303939
 20
363.4425477146659773
 30
0.0
 42
-0.4142133429221487
  0
VERTEX
  5
100F6
  8
0
 10
244.9999864797217981
 20
360.9425495232064236
 30
0.0
  0
VERTEX
  5
100F7
  8
0
 10
57.0000001216333487
 20
360.9425446659836894
 30
0.0
 42
-0.4142135951646086
  0
VERTEX
  5
100F8
  8
0
 10
54.5000000570426479
 20
363.4425448812860964
 30
0.0
 42
1.0000002566945421
  0
VERTEX
  5
100F9
  8
0
 10
47.5000000570429819
 20
363.4425436872712112
 30
0.0
 42
-0.4142137364731142
  0
VERTEX
  5
100FA
  8
0
 10
44.9999996391768278
 20
360.9425426191011184
 30
0.0
  0
VERTEX
  5
100FB
  8
0
 10
6.9999926172500011
 20
360.9425489706712256
 30
0.0
 42
0.4142136113291871
  0
VERTEX
  5
100FC
  8
0
 10
5.9999924501034618
 20
359.9425489706712256
 30
0.0
  0
VERTEX
  5
100FD
  8
0
 10
5.9999924501034618
 20
321.9425505824925722
 30
0.0
 42
-0.4142133297866115
  0
VERTEX
  5
100FE
  8
0
 10
3.4999944353534431
 20
319.4425505824934248
 30
0.0
 42
0.9999988740489374
  0
VERTEX
  5
100FF
  8
0
 10
3.4999921123915381
 20
312.4425505824983134
 30
0.0
 42
-0.4142131325764734
  0
VERTEX
  5
10100
  8
0
 10
5.9999884678830417
 20
309.9425506065365994
 30
0.0
  0
VERTEX
  5
10101
  8
0
 10
5.9999897225446537
 20
179.4425506065213085
 30
0.0
 42
-0.4142130607050739
  0
VERTEX
  5
10102
  8
0
 10
3.49999402858549
 20
176.9425505824893037
 30
0.0
 42
0.9999986888105947
  0
VERTEX
  5
10103
  8
0
 10
3.499996907168025
 20
169.9425505824958975
 30
0.0
 42
-0.4142132919768028
  0
VERTEX
  5
10104
  8
0
 10
5.9999946572575587
 20
167.442550640563411
 30
0.0
  0
VERTEX
  5
10105
  8
0
 10
5.9999972224621549
 20
57.0000000580608486
 30
0.0
 42
-0.4142131672110866
  0
VERTEX
  5
10106
  8
0
 10
3.5000006534478412
 20
54.4999999999967031
 30
0.0
 42
0.9999988638214217
  0
VERTEX
  5
10107
  8
0
 10
3.500002306953149
 20
47.5000000000014069
 30
0.0
 42
-0.4142132992081073
  0
VERTEX
  5
10108
  8
0
 10
6.0000000570426826
 20
44.9999999963458421
 30
0.0
  0
VERTEX
  5
10109
  8
0
 10
6.000000001462638
 20
7.000000057042655
 30
0.0
 42
0.4142135790804983
  0
VERTEX
  5
1010A
  8
0
 10
7.000000057042655
 20
6.000000055580017
 30
0.0
  0
VERTEX
  5
1010B
  8
0
 10
44.9999999180930175
 20
6.0000021676203801
 30
0.0
 42
-0.4142136844656594
  0
VERTEX
  5
1010C
  8
0
 10
47.5000000570428824
 20
3.5000012644452312
 30
0.0
 42
1.0000008767060899
  0
VERTEX
  5
1010D
  8
0
 10
54.5000000570392729
 20
3.500004872494741
 30
0.0
 42
-0.4142139889500215
  0
SEQEND
  5
1010E
  8
0
  0
ENDSEC
  0
EOF
